PathFileType	4	(X/Y/Z)	33_1_51_p1_0-299_filt_butterworth.trc
DataRate	CameraRate	NumFrames	NumMarkers	Units	OrigDataRate	OrigDataStartFrame	OrigNumFrames
59.0	59.0	6	27	m	59.0	112	299
Frame#	Time	RHip			RKnee			RAnkle			RBigToe			RSmallToe			RHeel			LHip			LKnee			LAnkle			LBigToe			LSmallToe			LHeel			Neck			Head			Nose			RShoulder			RElbow			RWrist			RThumb			RIndex			RPinky			LShoulder			LElbow			LWrist			LThumb			LIndex			LPinky			
		X1	Y1	Z1	X2	Y2	Z2	X3	Y3	Z3	X4	Y4	Z4	X5	Y5	Z5	X6	Y6	Z6	X7	Y7	Z7	X8	Y8	Z8	X9	Y9	Z9	X10	Y10	Z10	X11	Y11	Z11	X12	Y12	Z12	X13	Y13	Z13	X14	Y14	Z14	X15	Y15	Z15	X16	Y16	Z16	X17	Y17	Z17	X18	Y18	Z18	X19	Y19	Z19	X20	Y20	Z20	X21	Y21	Z21	X22	Y22	Z22	X23	Y23	Z23	X24	Y24	Z24	X25	Y25	Z25	X26	Y26	Z26	X27	Y27	Z27	
112	1.8983050847457628	0.3037942764451019	0.6669524307743138	0.5298367095150562	0.2678296110130251	0.22754333592934955	0.6114678693461131	0.24725878141331264	-0.18537484667527368	0.6934198663640533	0.2517398501598408	-0.2209152506298775	0.5507090291730008	0.3157900083809716	-0.22650933874191995	0.5872268505371038	0.22039686812843412	-0.2798204814862579	0.7797892501886341	0.09566570009095457	0.6765058285510286	0.5036424803419026	0.10853505602860788	0.24341349981939123	0.582918251872396	0.09338163169048157	-0.2300710180528614	0.7271863615935962	0.0951385375559261	-0.20132876290651677	0.5220911316590642	0.050902783919599404	-0.21727137888715892	0.574824558555787	0.09026563468722039	-0.28905986336132977	0.7853111654533668	0.21210110454977227	1.272305534723688	0.4734815719238366	0.2277982161786764	1.49770692019554	0.41384529896181677	0.23280302047553986	1.3698461194133438	0.3480456107188803	0.3673153146751942	1.1715573866419136	0.5214210361607808	0.4527590109160717	0.9121117585373085	0.4898073013664589	0.49274709329435185	0.9837101563306992	0.2999491135146627	0.44777385017454374	1.0953557238493603	0.17888249184958638	0.44344669484076715	1.0817997114120002	0.1323895276940864	0.4438529311610912	1.0101751539158708	0.11798482847055364	0.04451438288185872	1.1970528504216327	0.5184179681863026	-0.0632027979628969	0.9605269289184563	0.46714078144508475	-0.03815489414056156	1.0129850244563414	0.24483419332277068	0.005464658451049542	1.0789430494786696	0.12734415651823272	0.0197926552132967	1.0788079623206615	0.0850111218468993	0.008730885824807234	1.0232634462049648	0.0918886473433646	
113	1.915254237288136	0.3040322868282073	0.664792757121994	0.5284344755126361	0.2679513001326102	0.22600308249080822	0.6106240478502343	0.24719732980886666	-0.1857280348314778	0.6934576912782406	0.25247746190554543	-0.21883951376181318	0.5466600760706277	0.31633508336172866	-0.22519554921338555	0.5848010124590508	0.22041824937919963	-0.2815674451561423	0.7803506197547521	0.0954354201052909	0.6758964494052487	0.5038377437855025	0.10834764591643341	0.242625986802282	0.5811031138912903	0.09314965178504642	-0.2304421423998374	0.7275732232539267	0.09502993979109466	-0.2016159498104027	0.5224970031229997	0.05160506982745487	-0.2160618372082051	0.5725415093057141	0.09042637862835251	-0.2896940591283457	0.7863904718168684	0.21245332952211815	1.2724079196688016	0.47425132438385803	0.2282710497426601	1.4978444571461902	0.4129134917509928	0.2339618379160211	1.3699273683429682	0.34993500485061824	0.3679665944333793	1.1685101549113894	0.5182877307927461	0.45393921582110514	0.9052749730877648	0.5075326291247392	0.4860533113016283	0.9635791073972517	0.3164878071580709	0.44396756651956365	1.071618373889971	0.17574936724994647	0.43874548734126945	1.0561818572224984	0.13363360102112237	0.4291506376492993	0.9835924796553582	0.138982942947856	0.04415603639444965	1.1980010907088587	0.5197320444845227	-0.057685102011709816	0.9642452326613493	0.4857296342208632	-0.03280678013203789	0.9899286023634649	0.2544047953632106	0.00904622653862501	1.0495950707152233	0.12847305621156846	0.024241709260264685	1.0450573298019155	0.08054166624245074	0.014670751387622624	0.9858477689083562	0.08975416131840602	
114	1.9322033898305084	0.30444640401579476	0.6630195448398832	0.5264933839736685	0.2681857522310024	0.2247041596635259	0.6092429327750001	0.24713189337358413	-0.18611299376830703	0.6934994681061382	0.2531018290541642	-0.21651426098508103	0.5419673433137955	0.3164982561673751	-0.2239757126656891	0.5827221501626043	0.22056002563807015	-0.28295750808606684	0.7806837735420691	0.09520301105309273	0.6752496958084508	0.5040252520253129	0.10807767944799035	0.24159158816849124	0.5791706002282904	0.09303122663863754	-0.23072697551096608	0.7277973694966428	0.09483229692723838	-0.20132973670177362	0.5223658820859368	0.05260188185007291	-0.21464080931092358	0.5699248928056497	0.09061813972879243	-0.29039819972702335	0.7877396014440392	0.21268487888569876	1.2721647193457442	0.4748167748347609	0.22868698571208196	1.497790377537621	0.41289743066908957	0.23467772628871128	1.3699885257065103	0.35102296302735936	0.36832468684102077	1.164818219896174	0.5169766651038809	0.4552057832782632	0.899427403057743	0.5253456810988723	0.4770134218430372	0.9424416799403481	0.3343479924663546	0.4395595764229604	1.0470563256139045	0.17287756413899297	0.4328249587294798	1.030455397172988	0.13648943831801216	0.4125587250642856	0.9576494668709501	0.1576305853892325	0.04462905403460299	1.1988499000385597	0.5200425061321562	-0.05378456982822679	0.968640922441106	0.5015250539160634	-0.027894597132311995	0.965573410882215	0.26332270288249676	0.014157411726708594	1.0153187193126245	0.13308615303305793	0.028856493540396447	1.0065977902390288	0.07738735099419591	0.020114520549418743	0.9450488436317679	0.09223302957340529	
115	1.9491525423728813	0.3048003172902535	0.6617081933703406	0.5242514293685935	0.2684784728267156	0.22363218969211004	0.6074731651450596	0.24707575071735566	-0.1865094224418204	0.6935475258817325	0.25358699944355084	-0.21398075360651628	0.5370736608473782	0.3162217491016323	-0.22272624990410259	0.5807011699204906	0.220819868617208	-0.2839619234477245	0.7806785404324563	0.09500066353510303	0.674620027417349	0.5042178837333722	0.10784329406398742	0.2406408245823062	0.5769352615300459	0.09309277534565183	-0.2309718577380177	0.7278513667462955	0.09458635918887341	-0.200214956550909	0.5211313264721814	0.053769144774845706	-0.21316545106538343	0.5672080852173285	0.09085351925139905	-0.2912283197854633	0.7893602164437773	0.21277059899364478	1.2716515981953962	0.47505698870679164	0.22923702299743998	1.4974182081511398	0.41350505171581325	0.23477304824174225	1.370021447116781	0.35119660179725354	0.36827743628115506	1.1610260278601325	0.5176790799314507	0.456193085547555	0.8950274722140791	0.5425410076808241	0.4672247447675088	0.9210961019228552	0.3509928379474668	0.43509429077475836	1.0202398846965752	0.1744776608229241	0.4257158995693935	1.003499706279023	0.14042553487845233	0.39727222840059284	0.9315463617469817	0.17042638751564534	0.04575307991506112	1.1996903762201214	0.5192419146933244	-0.051562365564019524	0.9729716840771852	0.5130510124529247	-0.02461711464382029	0.9396809063997678	0.2705721567772965	0.020452916711489997	0.9751404583181407	0.1410481061907165	0.03285939748130806	0.9627564034466919	0.07792374231537524	0.02352502834127513	0.9016793767661235	0.10230186217084458	
116	1.9661016949152543	0.3048600487521345	0.6607817899443095	0.5221749836768145	0.26881954830361005	0.22281879384296235	0.6053718932733049	0.24703428306731684	-0.18689548230628528	0.6936119559453885	0.2539336722157245	-0.21082686317463084	0.5316332119759031	0.31563439735684923	-0.2206744069762568	0.5771315500521429	0.22115744669817577	-0.284562950543157	0.7803524990046455	0.09481881508232023	0.6740413114517476	0.5044717826562184	0.10771260638182475	0.24002918441492324	0.5742381781951137	0.09334540399348173	-0.23121499709270318	0.7278020706168122	0.094477924897385	-0.19803914412317028	0.5185012997093565	0.05509425526703747	-0.2116366247251632	0.5642599104114303	0.09115906412105491	-0.2922681359669063	0.7913244973275297	0.21273019408488952	1.2709610992453813	0.47496826394105374	0.22998722943715116	1.4967679372097482	0.4142721707143	0.23430201924492505	1.3700329100618565	0.3507078663269675	0.3677699751505402	1.1576068605927392	0.5204596843087292	0.4564942544550835	0.8923160471612048	0.5573610153080291	0.4589538037772436	0.8998455631083061	0.3641219483199082	0.430936195747322	0.9899619817268436	0.18257519354307847	0.4182760274321493	0.9736020038085401	0.144026739431319	0.38588517408830575	0.9036878407673821	0.17759248591281157	0.04717596250166416	1.2005405979782418	0.5174916090361967	-0.05027182548335031	0.975986365728923	0.5191822880999195	-0.02340907216078405	0.9120214795025212	0.2758015790764099	0.027132071262911107	0.9292146794839687	0.15243587980322149	0.03549921298808693	0.9138834672486631	0.08558959052744214	0.02368185758890013	0.8563997093046335	0.12077116150733092	
117	1.9830508474576272	0.304559756220522	0.6601601968707828	0.5206795052190217	0.2692615378198487	0.2224509834848714	0.6028059889327279	0.247002207101708	-0.1872650857045729	0.6936887621501943	0.25415181107353857	-0.2069067373788025	0.5254158056610081	0.31500098868173465	-0.21733851407519694	0.5708912079498589	0.2215454119733785	-0.28475208641424643	0.779742338310901	0.0946302664666709	0.6735785337102161	0.5047407792196732	0.10765452242356714	0.2398246988559161	0.5710520220639164	0.09374690380397316	-0.23143153282158152	0.7276351259237906	0.09465084526677828	-0.19494229033305313	0.5147145909159712	0.05661833073546202	-0.20999888337814915	0.5608432969400472	0.09154200822734902	-0.29352991805346496	0.7936043992500572	0.21252601153223116	1.2701620997369583	0.47466513707042585	0.23087390146171044	1.4959836593015623	0.41493112935969945	0.2335135561068567	1.3700382744250945	0.3500028596863829	0.3670316499257271	1.1546452168500676	0.5248552749074584	0.45554282056038076	0.8910029407930751	0.5678011032775387	0.4540532116915842	0.8784757281646907	0.37204380845702445	0.42747730183193866	0.9552577094310275	0.19485905792820168	0.41214306526532524	0.9388423561328441	0.14669565960982212	0.3803799988670843	0.8719507112725056	0.18327024704884134	0.04845752743279698	1.201346995208235	0.5153152195201448	-0.04855435528116721	0.9762104888949625	0.5194393279722399	-0.023501830727013933	0.8821950225106178	0.2800284332354619	0.03331427475621281	0.8786373414969724	0.16716591592771726	0.03623491921840942	0.8614244917009866	0.10214622523860822	0.020034500510841664	0.8096039567630533	0.14693579202639961	
